<mxfile host="app.diagrams.net" modified="2023-07-09T15:02:35.370Z" agent="Mozilla/5.0 (Windows NT 10.0; Win64; x64) AppleWebKit/537.36 (KHTML, like Gecko) Chrome/114.0.0.0 Safari/537.36" etag="IY1Kr9Cm3UsbH7UpP4HU" version="21.6.1" type="github">
  <diagram name="Page-1" id="2YBvvXClWsGukQMizWep">
    <mxGraphModel dx="712" dy="746" grid="1" gridSize="10" guides="1" tooltips="1" connect="1" arrows="1" fold="1" page="1" pageScale="1" pageWidth="850" pageHeight="1100" math="0" shadow="0">
      <root>
        <mxCell id="0" />
        <mxCell id="1" parent="0" />
        <mxCell id="aM9ryv3xv72pqoxQDRHE-1" value="Test" style="shape=umlLifeline;perimeter=lifelinePerimeter;whiteSpace=wrap;html=1;container=0;dropTarget=0;collapsible=0;recursiveResize=0;outlineConnect=0;portConstraint=eastwest;newEdgeStyle={&quot;edgeStyle&quot;:&quot;elbowEdgeStyle&quot;,&quot;elbow&quot;:&quot;vertical&quot;,&quot;curved&quot;:0,&quot;rounded&quot;:0};" parent="1" vertex="1">
          <mxGeometry x="40" y="40" width="100" height="410" as="geometry" />
        </mxCell>
        <mxCell id="aM9ryv3xv72pqoxQDRHE-3" value="Start Test" style="html=1;verticalAlign=bottom;startArrow=oval;endArrow=block;startSize=8;edgeStyle=elbowEdgeStyle;elbow=vertical;curved=0;rounded=0;" parent="aM9ryv3xv72pqoxQDRHE-1" target="aM9ryv3xv72pqoxQDRHE-1" edge="1">
          <mxGeometry relative="1" as="geometry">
            <mxPoint x="-15" y="70" as="sourcePoint" />
            <mxPoint x="45" y="70" as="targetPoint" />
          </mxGeometry>
        </mxCell>
        <mxCell id="aM9ryv3xv72pqoxQDRHE-5" value="LabRecruit" style="shape=umlLifeline;perimeter=lifelinePerimeter;whiteSpace=wrap;html=1;container=0;dropTarget=0;collapsible=0;recursiveResize=0;outlineConnect=0;portConstraint=eastwest;newEdgeStyle={&quot;edgeStyle&quot;:&quot;elbowEdgeStyle&quot;,&quot;elbow&quot;:&quot;vertical&quot;,&quot;curved&quot;:0,&quot;rounded&quot;:0};" parent="1" vertex="1">
          <mxGeometry x="270" y="40" width="100" height="410" as="geometry" />
        </mxCell>
        <mxCell id="aM9ryv3xv72pqoxQDRHE-7" value="Start level" style="html=1;verticalAlign=bottom;endArrow=block;edgeStyle=elbowEdgeStyle;elbow=vertical;curved=0;rounded=0;" parent="1" source="aM9ryv3xv72pqoxQDRHE-1" target="aM9ryv3xv72pqoxQDRHE-5" edge="1">
          <mxGeometry relative="1" as="geometry">
            <mxPoint x="95" y="120" as="sourcePoint" />
            <Array as="points">
              <mxPoint x="180" y="120" />
            </Array>
            <mxPoint x="315" y="120" as="targetPoint" />
          </mxGeometry>
        </mxCell>
        <mxCell id="aM9ryv3xv72pqoxQDRHE-8" value="Read recorded gameplay" style="html=1;verticalAlign=bottom;endArrow=open;dashed=1;endSize=8;edgeStyle=elbowEdgeStyle;elbow=vertical;curved=0;rounded=0;" parent="1" source="H-6UMpxHdkfpqxePdpcQ-5" target="aM9ryv3xv72pqoxQDRHE-1" edge="1">
          <mxGeometry relative="1" as="geometry">
            <mxPoint x="95" y="280" as="targetPoint" />
            <Array as="points">
              <mxPoint x="190" y="280" />
            </Array>
            <mxPoint x="315" y="280" as="sourcePoint" />
          </mxGeometry>
        </mxCell>
        <mxCell id="H-6UMpxHdkfpqxePdpcQ-1" value="Audio Recorder" style="shape=umlLifeline;perimeter=lifelinePerimeter;whiteSpace=wrap;html=1;container=0;dropTarget=0;collapsible=0;recursiveResize=0;outlineConnect=0;portConstraint=eastwest;newEdgeStyle={&quot;edgeStyle&quot;:&quot;elbowEdgeStyle&quot;,&quot;elbow&quot;:&quot;vertical&quot;,&quot;curved&quot;:0,&quot;rounded&quot;:0};" vertex="1" parent="1">
          <mxGeometry x="440" y="40" width="100" height="410" as="geometry" />
        </mxCell>
        <mxCell id="H-6UMpxHdkfpqxePdpcQ-3" value="Start recording" style="html=1;verticalAlign=bottom;endArrow=block;edgeStyle=elbowEdgeStyle;elbow=vertical;curved=0;rounded=0;" edge="1" parent="1" target="H-6UMpxHdkfpqxePdpcQ-1">
          <mxGeometry x="0.5932" relative="1" as="geometry">
            <mxPoint x="89.5" y="130" as="sourcePoint" />
            <Array as="points">
              <mxPoint x="190" y="130" />
            </Array>
            <mxPoint x="529.5" y="130" as="targetPoint" />
            <mxPoint as="offset" />
          </mxGeometry>
        </mxCell>
        <mxCell id="H-6UMpxHdkfpqxePdpcQ-5" value="File system" style="shape=umlLifeline;perimeter=lifelinePerimeter;whiteSpace=wrap;html=1;container=0;dropTarget=0;collapsible=0;recursiveResize=0;outlineConnect=0;portConstraint=eastwest;newEdgeStyle={&quot;edgeStyle&quot;:&quot;elbowEdgeStyle&quot;,&quot;elbow&quot;:&quot;vertical&quot;,&quot;curved&quot;:0,&quot;rounded&quot;:0};" vertex="1" parent="1">
          <mxGeometry x="600" y="40" width="100" height="410" as="geometry" />
        </mxCell>
        <mxCell id="H-6UMpxHdkfpqxePdpcQ-8" value="Level finished" style="html=1;verticalAlign=bottom;endArrow=block;edgeStyle=elbowEdgeStyle;elbow=vertical;curved=0;rounded=0;" edge="1" parent="1">
          <mxGeometry x="0.0391" relative="1" as="geometry">
            <mxPoint x="319.5" y="210" as="sourcePoint" />
            <Array as="points">
              <mxPoint x="190" y="210" />
            </Array>
            <mxPoint x="89.5" y="210" as="targetPoint" />
            <mxPoint as="offset" />
          </mxGeometry>
        </mxCell>
        <mxCell id="H-6UMpxHdkfpqxePdpcQ-9" value="Stop recording" style="html=1;verticalAlign=bottom;endArrow=block;edgeStyle=elbowEdgeStyle;elbow=vertical;curved=0;rounded=0;" edge="1" parent="1" source="aM9ryv3xv72pqoxQDRHE-1" target="H-6UMpxHdkfpqxePdpcQ-1">
          <mxGeometry x="0.5932" relative="1" as="geometry">
            <mxPoint x="80" y="250" as="sourcePoint" />
            <Array as="points">
              <mxPoint x="180.5" y="250" />
            </Array>
            <mxPoint x="480.5" y="250" as="targetPoint" />
            <mxPoint as="offset" />
          </mxGeometry>
        </mxCell>
        <mxCell id="H-6UMpxHdkfpqxePdpcQ-10" value="Save record" style="html=1;verticalAlign=bottom;endArrow=block;edgeStyle=elbowEdgeStyle;elbow=vertical;curved=0;rounded=0;" edge="1" parent="1" source="H-6UMpxHdkfpqxePdpcQ-1" target="H-6UMpxHdkfpqxePdpcQ-5">
          <mxGeometry x="0.1313" relative="1" as="geometry">
            <mxPoint x="100" y="260" as="sourcePoint" />
            <Array as="points">
              <mxPoint x="580" y="260" />
            </Array>
            <mxPoint x="500" y="260" as="targetPoint" />
            <mxPoint as="offset" />
          </mxGeometry>
        </mxCell>
        <mxCell id="H-6UMpxHdkfpqxePdpcQ-12" value="Checking sounds&amp;nbsp;" style="rounded=1;whiteSpace=wrap;html=1;" vertex="1" parent="1">
          <mxGeometry x="55" y="310" width="70" height="100" as="geometry" />
        </mxCell>
        <mxCell id="H-6UMpxHdkfpqxePdpcQ-13" value="" style="endArrow=classic;startArrow=classic;html=1;rounded=0;" edge="1" parent="1">
          <mxGeometry width="50" height="50" relative="1" as="geometry">
            <mxPoint x="89.5" y="160" as="sourcePoint" />
            <mxPoint x="319.5" y="160" as="targetPoint" />
          </mxGeometry>
        </mxCell>
        <mxCell id="H-6UMpxHdkfpqxePdpcQ-14" value="Play the game using agents" style="edgeLabel;html=1;align=center;verticalAlign=middle;resizable=0;points=[];" vertex="1" connectable="0" parent="H-6UMpxHdkfpqxePdpcQ-13">
          <mxGeometry x="0.0304" y="-3" relative="1" as="geometry">
            <mxPoint x="1" y="-13" as="offset" />
          </mxGeometry>
        </mxCell>
        <mxCell id="H-6UMpxHdkfpqxePdpcQ-15" value="Delete recorded gameplay" style="html=1;verticalAlign=bottom;endArrow=block;edgeStyle=elbowEdgeStyle;elbow=vertical;curved=0;rounded=0;" edge="1" parent="1" source="aM9ryv3xv72pqoxQDRHE-1" target="H-6UMpxHdkfpqxePdpcQ-5">
          <mxGeometry x="-0.5339" relative="1" as="geometry">
            <mxPoint x="90" y="440" as="sourcePoint" />
            <Array as="points">
              <mxPoint x="180.5" y="440" />
            </Array>
            <mxPoint x="490" y="440" as="targetPoint" />
            <mxPoint as="offset" />
          </mxGeometry>
        </mxCell>
      </root>
    </mxGraphModel>
  </diagram>
</mxfile>
